<?xml version="1.0" ?>
<svg xmlns="http://www.w3.org/2000/svg" width="20.0" height="20.0" viewBox="0 0 20.0 20.0">
  <path d="M7,10c1.313,0 2.406,0.813 2.813,2h7.124c0.563,0 1,0.438 1,1 0,0.531 -0.437,1 -1,1L9.813,14A2.953,2.953 0,0 1,7 15.969,2.953 2.953,0 0,1 4.187,14L3,14c-0.563,0 -1,-0.469 -1,-1 0,-0.562 0.438,-1 1,-1h1.188c0.406,-1.187 1.5,-2 2.812,-2zM7,11.969c-0.563,0 -1,0.469 -1,1 0,0.562 0.438,1 1,1 0.563,0 1,-0.438 1,-1 0,-0.563 -0.469,-1 -1,-1zM12.969,4a2.98,2.98 0,0 1,2.812 2L17,6c0.469,0 0.969,0.313 1,1 0,0.563 -0.438,1 -1,1h-1.188c-0.437,1.156 -1.53,2 -2.843,2a2.98,2.98 0,0 1,-2.813 -2L3,8c-0.469,0 -0.969,-0.344 -1,-1 0,-0.562 0.438,-1 1,-1h7.156a3.01,3.01 0,0 1,2.813 -2zM12.969,6c-0.531,0 -1,0.438 -1,1 0,0.563 0.469,1 1,1 0.562,0 1,-0.437 1,-1 0,-0.562 -0.469,-1 -1,-1z" fill="#282d37ff"/>
</svg>
